<?xml version="1.0" encoding="UTF-8" standalone="no"?><!DOCTYPE svg PUBLIC "-//W3C//DTD SVG 1.1//EN" "http://www.w3.org/Graphics/SVG/1.1/DTD/svg11.dtd"><svg width="100%" height="100%" viewBox="0 0 64 39" version="1.1" xmlns="http://www.w3.org/2000/svg" xmlns:xlink="http://www.w3.org/1999/xlink" xml:space="preserve" xmlns:serif="http://www.serif.com/" style="fill-rule:evenodd;clip-rule:evenodd;stroke-linejoin:round;stroke-miterlimit:1.41421;"><g id="Group-12"><path id="Fill-2" d="M36.107,8.187c-3.362,-0.43 -5.406,-1.868 -6.382,-2.759c-0.564,0.241 -1.121,0.499 -1.666,0.781c1.75,1.654 3.978,2.794 6.342,3.252c2.712,0.531 5.596,0.15 8.067,-1.091c0.722,-0.352 1.392,-0.796 2.05,-1.255c0,0 -3.757,1.667 -8.411,1.072" style="fill:#fff;"/><path id="Fill-4" d="M59.355,28.101c-1.894,-1.675 -4.206,-2.8 -6.572,-3.64c-0.788,-0.325 -1.676,-0.436 -2.377,-0.949c-0.122,-0.069 -0.069,-0.224 -0.079,-0.335c-0.002,-0.631 -0.074,-1.26 -0.115,-1.89c-0.025,-1.049 0.063,-2.119 0.419,-3.113c0.226,-0.643 0.652,-1.242 1.274,-1.553c0.886,-0.448 1.907,-0.413 2.872,-0.499c1.213,-0.063 2.421,-0.413 3.452,-1.063c0.904,-0.564 1.584,-1.48 1.81,-2.527c-3.247,-3.78 -7.302,-6.905 -11.892,-8.879c-4.102,-1.754 -8.54,-2.736 -13.004,-2.802c-1.984,-0.024 -3.976,0.073 -5.928,0.442c0.682,1.201 1.565,2.288 2.588,3.215c0,0 2.277,2.187 5.776,2.645c3.498,0.458 7.176,-0.224 7.176,-0.224c-0.788,1.954 -0.898,4.137 -1.948,5.99c-0.6,1.137 -1.6,2.082 -2.839,2.473c-1.65,0.479 -3.402,0.281 -5.057,-0.068c-1.75,-0.39 -3.513,-0.737 -5.301,-0.883c-1.601,-0.16 -3.209,-0.217 -4.815,-0.314c-1.632,-0.099 -3.258,-0.331 -4.848,-0.72c-0.487,-0.124 -0.96,-0.303 -1.449,-0.424c-0.707,-0.188 -3.132,-1.356 -3.703,-1.63c-0.563,0.861 -0.982,2.114 -0.867,3.142c0.171,1.194 0.928,2.308 2.011,2.855c0.054,0.029 0.107,0.053 0.16,0.073c1.84,-1.483 4.411,-1.445 4.43,-1.445c0.003,-0.001 0.004,-0.001 0.001,0l-0.001,0c-0.088,0.023 -2.172,0.653 -3.515,2.076c-0.03,0.048 -0.065,0.093 -0.109,0.13c-0.015,0.012 -0.028,0.026 -0.043,0.038c-0.225,0.261 -0.425,0.545 -0.583,0.856c-0.045,0.089 -0.089,0.177 -0.135,0.26c-0.725,1.394 -0.905,2.976 -1.376,4.458c-0.231,0.71 -0.517,1.421 -1.001,2c-0.791,0.988 -2.043,1.532 -3.288,1.623c-0.434,0.036 -0.843,0.201 -1.242,0.367c-0.645,0.335 -1.033,0.979 -1.433,1.559c-0.809,1.245 -1.774,2.388 -2.869,3.39c-1.613,1.483 -3.027,3.16 -4.512,4.765c0.583,0.719 1.442,1.329 2.408,1.274c1.023,0.012 1.881,-0.62 2.678,-1.182c0.557,-0.441 1.118,-0.876 1.636,-1.363c1.153,-0.915 2.367,-1.75 3.574,-2.593c0.728,-0.511 1.518,-0.945 2.366,-1.222c1.461,-0.5 3,-0.699 4.485,-1.113c1.435,-0.369 2.884,-0.75 4.206,-1.436c1.098,-0.58 2.098,-1.364 2.886,-2.326c0.003,-0.003 0.005,-0.007 0.008,-0.01c0.13,-0.159 0.254,-0.323 0.372,-0.492c1.524,-2.303 0.575,-5.162 0.575,-5.162c0,0 1.695,1.595 1.539,4.058c0.119,-0.017 0.238,-0.031 0.358,-0.039c1.312,-0.102 2.604,0.236 3.835,0.654c1.903,0.674 3.686,1.634 5.536,2.432c1.129,0.5 2.297,0.945 3.508,1.197c-2.04,-2.738 -1.513,-5.874 -1.513,-5.874c0,0 1.659,4.858 6.168,5.921c2.732,0.587 3.946,0.294 5.216,0.192c1.354,-0.109 1.367,-0.214 2.059,-0.255c0.782,-0.081 1.573,0.034 2.326,0.253c0.592,0.166 1.178,0.372 1.712,0.683c1.079,0.616 2.081,1.396 2.85,2.377c0.69,0.835 1.809,1.394 2.904,1.165c0.774,-0.146 1.418,-0.718 1.728,-1.432c-0.927,-2.116 -2.605,-3.811 -4.488,-5.106" style="fill:#fff;"/><path id="Fill-8" d="M16.862,18.222c-0.258,0.222 -0.425,0.545 -0.583,0.856c0.158,-0.311 0.358,-0.595 0.583,-0.856" style="fill:#1a1a1a;"/></g></svg>