<?xml version="1.0" standalone="no"?>
<!DOCTYPE svg PUBLIC "-//W3C//DTD SVG 20010904//EN"
 "http://www.w3.org/TR/2001/REC-SVG-20010904/DTD/svg10.dtd">
<svg version="1.0" xmlns="http://www.w3.org/2000/svg"
 width="700.000000pt" height="700.000000pt" viewBox="0 0 700.000000 700.000000"
 preserveAspectRatio="xMidYMid meet">
<metadata>
Created by potrace 1.11, written by Peter Selinger 2001-2013
</metadata>
<g transform="translate(0.000000,700.000000) scale(0.100000,-0.100000)"
fill="#000000" stroke="none">
<path d="M3320 6700 c-867 -49 -1678 -448 -2246 -1105 -419 -485 -681 -1082
-761 -1739 -19 -158 -21 -534 -4 -686 46 -411 146 -751 327 -1111 443 -885
1272 -1514 2249 -1708 384 -76 846 -76 1230 0 1065 211 1949 940 2358 1944
361 886 299 1913 -164 2751 -598 1081 -1759 1723 -2989 1654z m580 -1836 c556
-71 1071 -330 1445 -726 89 -95 93 -101 84 -130 -23 -81 -107 -160 -209 -196
-74 -27 -88 -29 -215 -42 -72 -7 -125 -18 -153 -32 -86 -41 -118 -132 -125
-352 l-4 -139 41 -17 c23 -10 106 -32 186 -50 384 -85 578 -207 699 -440 l41
-79 -32 -37 c-53 -61 -110 -76 -192 -52 -30 9 -62 33 -116 89 -84 85 -147 122
-237 139 -75 13 -138 4 -309 -44 -155 -44 -244 -52 -354 -32 -228 41 -431 222
-494 441 -3 11 -3 -13 0 -54 5 -88 39 -192 89 -272 19 -31 35 -59 35 -62 0
-10 -135 32 -231 72 -53 22 -181 83 -285 135 -278 139 -381 176 -493 176 l-47
0 -12 60 c-13 70 -56 171 -83 196 -19 17 -19 16 -3 -27 11 -27 17 -76 18 -129
1 -74 -3 -92 -26 -135 -71 -135 -248 -236 -488 -280 -203 -37 -277 -56 -338
-86 -55 -27 -74 -45 -164 -157 -157 -196 -207 -250 -274 -298 -130 -93 -224
-96 -311 -12 l-33 31 83 86 c189 196 240 277 317 505 50 147 82 191 147 201
21 3 74 17 118 30 148 44 192 105 255 346 22 85 53 181 70 214 51 106 165 204
299 256 61 24 32 24 -44 0 -77 -24 -142 -53 -194 -85 -22 -14 -47 -26 -55 -26
-22 0 -97 81 -120 130 -31 69 -29 179 6 246 22 42 97 124 113 124 3 0 38 -34
78 -77 149 -157 252 -198 617 -243 246 -30 407 -64 601 -126 237 -76 321 -87
418 -58 111 33 182 135 227 329 14 61 36 145 49 188 16 54 19 74 9 66 -7 -6
-18 -8 -24 -4 -6 4 -9 1 -8 -7 5 -21 -192 -114 -295 -139 -196 -47 -421 -25
-602 60 -103 48 -268 161 -255 175 3 2 31 16 62 29 l57 26 46 -38 c106 -87
255 -156 404 -186 64 -13 116 -16 220 -13 118 5 149 10 231 37 85 28 137 50
118 51 -4 0 -37 -7 -75 -16 -90 -21 -284 -21 -380 0 -183 40 -354 136 -482
271 -65 68 -131 157 -131 176 0 6 155 25 275 33 85 6 314 -5 435 -20z"/>
</g>
</svg>
